<svg xmlns="http://www.w3.org/2000/svg" viewBox="0 0 64 64">
  <!-- Палочки (две диагональные линии через сердце) -->
  <g stroke="#111" stroke-width="4" stroke-linecap="round">
    <line x1="2"  y1="22" x2="62" y2="38"/>
    <line x1="2"  y1="42" x2="62" y2="26"/>
  </g>
  <!-- Большое чёрное сердце -->
  <path d="M32 60 C32 60 4 42 4 22 C4 11 12 3 22 3 C27 3 30 6 32 10 C34 6 37 3 42 3 C52 3 60 11 60 22 C60 42 32 60 32 60 Z" fill="#111"/>
  <!-- Маленькое красное сердце внутри -->
  <path d="M32 36 C32 36 18 26 18 17 C18 13 21 10 25 10 C27 10 30 11 32 14 C34 11 37 10 39 10 C43 10 46 13 46 17 C46 26 32 36 32 36 Z" fill="#E83924"/>
</svg>
